<svg viewBox="0 0 62 51" fill="none" xmlns="http://www.w3.org/2000/svg">
<path fill-rule="evenodd" clip-rule="evenodd" d="M0.5 42.6667C0.5 35.3949 6.39492 29.5 13.6667 29.5H26.3333C33.6051 29.5 39.5 35.3949 39.5 42.6667C39.5 46.9929 35.9929 50.5 31.6667 50.5H8.33333C4.0071 50.5 0.5 46.9929 0.5 42.6667ZM13.6667 34.5C9.15634 34.5 5.5 38.1563 5.5 42.6667C5.5 44.2315 6.76853 45.5 8.33333 45.5H31.6667C33.2315 45.5 34.5 44.2315 34.5 42.6667C34.5 38.1563 30.8437 34.5 26.3333 34.5H13.6667Z" fill="currentColor"/>
<path fill-rule="evenodd" clip-rule="evenodd" d="M43.5 36C43.5 34.6193 44.6193 33.5 46 33.5H51C56.799 33.5 61.5 38.201 61.5 44C61.5 47.5899 58.5899 50.5 55 50.5H46C44.6193 50.5 43.5 49.3807 43.5 48C43.5 46.6193 44.6193 45.5 46 45.5H55C55.8284 45.5 56.5 44.8284 56.5 44C56.5 40.9624 54.0376 38.5 51 38.5H46C44.6193 38.5 43.5 37.3807 43.5 36Z" fill="currentColor"/>
<path fill-rule="evenodd" clip-rule="evenodd" d="M20 5.5C15.8579 5.5 12.5 8.85786 12.5 13C12.5 17.1421 15.8579 20.5 20 20.5C24.1421 20.5 27.5 17.1421 27.5 13C27.5 8.85786 24.1421 5.5 20 5.5ZM7.5 13C7.5 6.09644 13.0964 0.5 20 0.5C26.9036 0.5 32.5 6.09644 32.5 13C32.5 19.9036 26.9036 25.5 20 25.5C13.0964 25.5 7.5 19.9036 7.5 13Z" fill="currentColor"/>
<path fill-rule="evenodd" clip-rule="evenodd" d="M45 16.5C43.067 16.5 41.5 18.067 41.5 20C41.5 21.933 43.067 23.5 45 23.5C46.933 23.5 48.5 21.933 48.5 20C48.5 18.067 46.933 16.5 45 16.5ZM36.5 20C36.5 15.3056 40.3056 11.5 45 11.5C49.6944 11.5 53.5 15.3056 53.5 20C53.5 24.6944 49.6944 28.5 45 28.5C40.3056 28.5 36.5 24.6944 36.5 20Z" fill="currentColor"/>
</svg>
