<svg viewBox="0 0 57 61" fill="none" xmlns="http://www.w3.org/2000/svg">
<path fill-rule="evenodd" clip-rule="evenodd" d="M30.634 5.72582C29.3759 4.75806 27.6241 4.75806 26.366 5.72582L6.36601 21.1104C5.50471 21.773 5 22.798 5 23.8846V51.9302C5 53.8632 6.567 55.4302 8.5 55.4302H48.5C50.433 55.4302 52 53.8632 52 51.9302V23.8846C52 22.798 51.4953 21.773 50.634 21.1104L30.634 5.72582ZM23.3175 1.7627C26.3728 -0.587565 30.6272 -0.587566 33.6825 1.7627L53.6825 17.1473C55.7743 18.7563 57 21.2456 57 23.8846V51.9302C57 56.6246 53.1944 60.4302 48.5 60.4302H8.5C3.80558 60.4302 0 56.6246 0 51.9302V23.8846C0 21.2456 1.22573 18.7563 3.31746 17.1473L23.3175 1.7627Z" fill="currentColor"/>
<path fill-rule="evenodd" clip-rule="evenodd" d="M17 37.9302C17 34.3403 19.9101 31.4302 23.5 31.4302H32.5C36.0899 31.4302 39 34.3403 39 37.9302V57.9302H34V37.9302C34 37.1017 33.3284 36.4302 32.5 36.4302H23.5C22.6716 36.4302 22 37.1017 22 37.9302V57.9302H17V37.9302Z" fill="currentColor"/>
</svg>
