<svg viewBox="0 0 49 62" fill="none" xmlns="http://www.w3.org/2000/svg">
<path fill-rule="evenodd" clip-rule="evenodd" d="M11 14.1963C11 6.74045 17.0442 0.696289 24.5 0.696289C31.9558 0.696289 38 6.74045 38 14.1963V28.1963C38 35.6521 31.9558 41.6963 24.5 41.6963C17.0442 41.6963 11 35.6521 11 28.1963V14.1963ZM24.5 5.69629C19.8056 5.69629 16 9.50187 16 14.1963V28.1963C16 32.8907 19.8056 36.6963 24.5 36.6963C29.1944 36.6963 33 32.8907 33 28.1963V14.1963C33 9.50187 29.1944 5.69629 24.5 5.69629Z" fill="currentColor"/>
<path fill-rule="evenodd" clip-rule="evenodd" d="M2.5 24.6963C3.88071 24.6963 5 25.8156 5 27.1963C5 37.9658 13.7304 46.6963 24.5 46.6963C35.2696 46.6963 44 37.9658 44 27.1963C44 25.8156 45.1193 24.6963 46.5 24.6963C47.8807 24.6963 49 25.8156 49 27.1963C49 40.7273 38.031 51.6963 24.5 51.6963C10.969 51.6963 0 40.7273 0 27.1963C0 25.8156 1.11929 24.6963 2.5 24.6963Z" fill="currentColor"/>
<path fill-rule="evenodd" clip-rule="evenodd" d="M24.5 46.6963C25.8807 46.6963 27 47.8156 27 49.1963V58.6963C27 60.077 25.8807 61.1963 24.5 61.1963C23.1193 61.1963 22 60.077 22 58.6963V49.1963C22 47.8156 23.1193 46.6963 24.5 46.6963Z" fill="currentColor"/>
</svg>
