<svg viewBox="0 0 60 61" fill="none" xmlns="http://www.w3.org/2000/svg">
<path fill-rule="evenodd" clip-rule="evenodd" d="M0 30.6963C0 14.1277 13.4315 0.696289 30 0.696289C46.5685 0.696289 60 14.1277 60 30.6963C60 47.2648 46.5685 60.6963 30 60.6963C13.4315 60.6963 0 47.2648 0 30.6963ZM30 5.69629C16.1929 5.69629 5 16.8892 5 30.6963C5 44.5034 16.1929 55.6963 30 55.6963C43.8071 55.6963 55 44.5034 55 30.6963C55 16.8892 43.8071 5.69629 30 5.69629Z" fill="currentColor"/>
<path fill-rule="evenodd" clip-rule="evenodd" d="M11 52.863C11 45.5912 16.8949 39.6963 24.1667 39.6963H36.8333C44.1051 39.6963 50 45.5912 50 52.863H45C45 48.3526 41.3437 44.6963 36.8333 44.6963H24.1667C19.6563 44.6963 16 48.3526 16 52.863H11Z" fill="currentColor"/>
<path fill-rule="evenodd" clip-rule="evenodd" d="M30.5 15.6963C26.3579 15.6963 23 19.0542 23 23.1963C23 27.3384 26.3579 30.6963 30.5 30.6963C34.6421 30.6963 38 27.3384 38 23.1963C38 19.0542 34.6421 15.6963 30.5 15.6963ZM18 23.1963C18 16.2927 23.5964 10.6963 30.5 10.6963C37.4036 10.6963 43 16.2927 43 23.1963C43 30.0998 37.4036 35.6963 30.5 35.6963C23.5964 35.6963 18 30.0998 18 23.1963Z" fill="currentColor"/>
</svg>
