<svg viewBox="0 0 60 60" fill="none" xmlns="http://www.w3.org/2000/svg">
<path fill-rule="evenodd" clip-rule="evenodd" d="M0.5 15C0.5 6.99187 6.99187 0.5 15 0.5H45C53.0081 0.5 59.5 6.99187 59.5 15V45C59.5 53.0081 53.0081 59.5 45 59.5H15C6.99187 59.5 0.5 53.0081 0.5 45V15ZM15 5.5C9.75329 5.5 5.5 9.75329 5.5 15V45C5.5 50.2467 9.75329 54.5 15 54.5H45C50.2467 54.5 54.5 50.2467 54.5 45V15C54.5 9.75329 50.2467 5.5 45 5.5H15Z" fill="currentColor"/>
<path fill-rule="evenodd" clip-rule="evenodd" d="M1.5 19C1.5 17.6193 2.61929 16.5 4 16.5H55C56.3807 16.5 57.5 17.6193 57.5 19C57.5 20.3807 56.3807 21.5 55 21.5H4C2.61929 21.5 1.5 20.3807 1.5 19Z" fill="currentColor"/>
<path fill-rule="evenodd" clip-rule="evenodd" d="M16.0066 1.20601C17.2735 0.657033 18.7455 1.23901 19.2945 2.50589L25.7945 17.5059C26.3435 18.7728 25.7615 20.2448 24.4947 20.7938C23.2278 21.3428 21.7557 20.7608 21.2067 19.4939L14.7067 4.49392C14.1578 3.22704 14.7397 1.755 16.0066 1.20601ZM34.0066 1.20601C35.2735 0.657033 36.7455 1.23901 37.2945 2.50589L43.7945 17.5059C44.3435 18.7728 43.7615 20.2448 42.4947 20.7938C41.2278 21.3428 39.7557 20.7608 39.2067 19.4939L32.7067 4.49392C32.1578 3.22704 32.7397 1.755 34.0066 1.20601Z" fill="currentColor"/>
<path d="M23 30.4969C23 28.9501 24.6808 27.9888 26.014 28.7731L37.0694 35.2762C38.384 36.0495 38.384 37.9507 37.0694 38.724L26.014 45.2271C24.6808 46.0114 23 45.0501 23 43.5033V30.4969Z" fill="currentColor"/>
</svg>
