<svg viewBox="0 0 58 62" fill="none" xmlns="http://www.w3.org/2000/svg">
<path fill-rule="evenodd" clip-rule="evenodd" d="M37.0458 4.7169C36.8008 2.43026 34.8711 0.696289 32.5714 0.696289H24.878C22.6575 0.696289 20.8574 2.49637 20.8574 4.71689C20.8574 9.69629 14.9149 12.9665 10.1914 10.8749C8.08859 9.94376 5.62209 10.7479 4.47223 12.7395L0.7694 19.153C-0.380464 21.1447 0.156363 23.6828 2.01414 25.0383C6.1872 28.0831 6.18718 34.3095 2.01403 37.3543C0.156256 38.7098 -0.380575 41.2479 0.769285 43.2395L4.47212 49.653C5.62198 51.6446 8.08848 52.4488 10.1913 51.5177C14.9148 49.426 20.3071 52.5392 20.8574 57.6757C21.1024 59.9623 23.0321 61.6963 25.3318 61.6963L32.5714 61.6963C34.8711 61.6963 36.8008 59.9623 37.0458 57.6757C37.5961 52.5392 42.9884 49.426 47.712 51.5177C49.8147 52.4488 52.2812 51.6447 53.4311 49.653L57.1339 43.2395C58.2838 41.2479 57.747 38.7098 55.8892 37.3543C51.716 34.3095 51.716 28.0831 55.8891 25.0383C57.7469 23.6828 58.2837 21.1447 57.1338 19.1531L53.431 12.7395C52.2811 10.7479 49.8146 9.94377 47.7119 10.8749C42.9884 12.9665 37.5961 9.85335 37.0458 4.7169ZM8.41597 15.6219C15.9967 18.6717 24.4583 13.7862 25.6075 5.69629H32.1301C33.2793 13.7864 41.741 18.6717 49.3218 15.6219L52.5832 21.2707C46.1515 26.3109 46.1517 36.0817 52.5833 41.1219L49.322 46.7707C41.7412 43.7209 33.2793 48.6062 32.1301 56.6963H25.6075C24.4583 48.6063 15.9966 43.7209 8.41586 46.7707L5.15454 41.1219C11.5861 36.0817 11.5863 26.3109 5.15465 21.2707L8.41597 15.6219Z" fill="currentColor"/>
<path fill-rule="evenodd" clip-rule="evenodd" d="M28.5 22.6963C23.8056 22.6963 20 26.5019 20 31.1963C20 35.8907 23.8056 39.6963 28.5 39.6963C33.1944 39.6963 37 35.8907 37 31.1963C37 26.5019 33.1944 22.6963 28.5 22.6963ZM15 31.1963C15 23.7404 21.0442 17.6963 28.5 17.6963C35.9558 17.6963 42 23.7404 42 31.1963C42 38.6521 35.9558 44.6963 28.5 44.6963C21.0442 44.6963 15 38.6521 15 31.1963Z" fill="currentColor"/>
</svg>
